<svg width="20" height="20" viewBox="0 0 20 20" fill="none" xmlns="http://www.w3.org/2000/svg">
<path d="M16.783 0L20 3.21704L17.5475 5.67058L14.3305 2.45353L16.783 0ZM5 15H8.21704L16.0312 7.1858L12.8142 3.96876L5 11.783V15Z" fill="#1E555C"/>
<path d="M16.8889 17.8889H5.44456C5.41711 17.8889 5.38861 17.8994 5.36117 17.8994C5.32633 17.8994 5.2915 17.8899 5.25561 17.8889H2.11111V3.11111H9.3385L11.4496 1H2.11111C0.946833 1 0 1.94578 0 3.11111V17.8889C0 19.0542 0.946833 20 2.11111 20H16.8889C17.4488 20 17.9858 19.7776 18.3817 19.3817C18.7776 18.9858 19 18.4488 19 17.8889V8.73933L16.8889 10.8504V17.8889Z" fill="#1E555C"/>
</svg>
