<svg width="27" height="27" viewBox="0 0 27 27" fill="none" xmlns="http://www.w3.org/2000/svg">
<path d="M13.6125 20.8687L13.5 20.9812L13.3763 20.8687C8.0325 16.02 4.5 12.8138 4.5 9.5625C4.5 7.3125 6.1875 5.625 8.4375 5.625C10.17 5.625 11.8575 6.75 12.4537 8.28H14.5463C15.1425 6.75 16.83 5.625 18.5625 5.625C20.8125 5.625 22.5 7.3125 22.5 9.5625C22.5 12.8138 18.9675 16.02 13.6125 20.8687ZM18.5625 3.375C16.605 3.375 14.7262 4.28625 13.5 5.715C12.2738 4.28625 10.395 3.375 8.4375 3.375C4.9725 3.375 2.25 6.08625 2.25 9.5625C2.25 13.8038 6.075 17.28 11.8688 22.5338L13.5 24.0188L15.1312 22.5338C20.925 17.28 24.75 13.8038 24.75 9.5625C24.75 6.08625 22.0275 3.375 18.5625 3.375Z" fill="black"/>
</svg>
