<?xml version="1.0" encoding="utf-8"?>
<svg width="27" height="27"  version="1.1" id="Layer_1" xmlns="http://www.w3.org/2000/svg" xmlns:xlink="http://www.w3.org/1999/xlink" x="0px" y="0px"
	 viewBox="0 0 27 27" style="enable-background:new 0 0 27 27;" xml:space="preserve">
<g>
	<path d="M18.6,5.6c-1.7,0-3.4,1.1-4,2.7h-2.1c-0.6-1.5-2.3-2.7-4-2.7c-2.2,0-3.9,1.7-3.9,3.9c0,3.3,3.5,6.5,8.9,11.3l0.1,0.1
		l0.1-0.1c5.4-4.8,8.9-8.1,8.9-11.3C22.5,7.3,20.8,5.6,18.6,5.6z"/>
	<path d="M18.6,3.4c-2,0-3.8,0.9-5.1,2.3c-1.2-1.4-3.1-2.3-5.1-2.3C5,3.4,2.2,6.1,2.2,9.6c0,4.2,3.8,7.7,9.6,13l1.6,1.5l1.6-1.5
		c5.8-5.3,9.6-8.7,9.6-13C24.8,6.1,22,3.4,18.6,3.4z M13.6,20.9L13.5,21l-0.1-0.1C8,16,4.5,12.8,4.5,9.6c0-2.2,1.7-3.9,3.9-3.9
		c1.7,0,3.4,1.1,4,2.7h2.1c0.6-1.5,2.3-2.7,4-2.7c2.2,0,3.9,1.7,3.9,3.9C22.5,12.8,19,16,13.6,20.9z"/>
</g>
</svg>
