<svg width="32" height="32" viewBox="0 0 32 32" fill="none" xmlns="http://www.w3.org/2000/svg">
<path d="M3.99999 25.3333H28C28.243 25.3326 28.4812 25.2656 28.6889 25.1395C28.8966 25.0134 29.066 24.8331 29.1789 24.6179C29.2918 24.4027 29.3438 24.1609 29.3295 23.9183C29.3151 23.6757 29.2348 23.4417 29.0973 23.2413L17.0973 5.908C16.6 5.18934 15.4027 5.18934 14.904 5.908L2.90399 23.2413C2.76509 23.4413 2.68364 23.6754 2.66848 23.9184C2.65332 24.1614 2.70504 24.4038 2.81801 24.6195C2.93098 24.8351 3.10089 25.0157 3.30928 25.1415C3.51766 25.2674 3.75655 25.3337 3.99999 25.3333Z" fill="white"/>
</svg>
