<svg width="150" height="33" viewBox="0 0 150 33" fill="none" xmlns="http://www.w3.org/2000/svg">
<path d="M149.296 27H138.952C138.869 27 138.827 26.9479 138.827 26.8438L138.859 4.85938C138.859 4.77604 138.9 4.73438 138.984 4.73438H149.265C149.348 4.73438 149.39 4.78646 149.39 4.89062V8.46875C149.39 8.55208 149.348 8.59375 149.265 8.59375H142.702V13.5938H149.265C149.348 13.5938 149.39 13.6354 149.39 13.7188L149.421 17.3438C149.421 17.4271 149.379 17.4688 149.296 17.4688H142.702V23.0625H149.296C149.379 23.0625 149.421 23.1146 149.421 23.2188V26.875C149.421 26.9583 149.379 27 149.296 27Z" fill="white"/>
<path d="M136.656 27H124.718C124.614 27 124.562 26.9479 124.562 26.8438L124.593 23.3594L132.437 8.375H125.015C124.921 8.375 124.874 8.33333 124.874 8.25V4.89062C124.874 4.78646 124.921 4.73438 125.015 4.73438H136.593C136.697 4.73438 136.749 4.78646 136.749 4.89062V8.34375L128.952 23.25H136.656C136.739 23.25 136.781 23.3073 136.781 23.4219L136.812 26.8438C136.812 26.9479 136.76 27 136.656 27Z" fill="white"/>
<path d="M122.493 26.9999H118.865C118.76 26.9999 118.708 26.9622 118.708 26.8868L118.74 10.9786C118.74 10.9183 118.781 10.8882 118.865 10.8882H122.462C122.545 10.8882 122.587 10.9183 122.587 10.9786L122.618 26.8868C122.618 26.9622 122.577 26.9999 122.493 26.9999Z" fill="white"/>
<path d="M116.609 27H106.265C106.182 27 106.14 26.9479 106.14 26.8438L106.171 4.89062C106.171 4.78646 106.223 4.73438 106.327 4.73438H109.89C109.994 4.73438 110.046 4.78646 110.046 4.89062L110.015 23.0625H116.609C116.713 23.0625 116.765 23.1146 116.765 23.2188V26.8438C116.765 26.9479 116.713 27 116.609 27Z" fill="white"/>
<path d="M91.4055 26.8438L95.3743 4.85938C95.3951 4.77604 95.4472 4.73438 95.5305 4.73438H100.171C100.254 4.73438 100.307 4.77604 100.327 4.85938L104.14 26.8438C104.15 26.9479 104.109 27 104.015 27H100.468C100.364 27 100.307 26.9479 100.296 26.8438L99.9524 24.5H95.593L95.2493 26.8438C95.2389 26.9479 95.1868 27 95.093 27H91.5305C91.4472 27 91.4055 26.9479 91.4055 26.8438ZM97.6711 12.0938L96.2336 21.0781H99.3118L97.9993 12.0938L97.8118 10.9062L97.6711 12.0938Z" fill="white"/>
<path d="M84.1555 27H78.4211C78.3378 27 78.2961 26.9479 78.2961 26.8438L78.3586 4.85938C78.3586 4.77604 78.4003 4.73438 78.4836 4.73438H84.6399C85.8378 4.73438 86.9264 5.02604 87.9055 5.60938C88.8639 6.19271 89.6191 6.96875 90.1711 7.9375C90.7232 8.89583 90.9993 9.9375 90.9993 11.0625C90.9993 11.9792 90.7909 12.8333 90.3743 13.625C89.9576 14.4167 89.4628 15.0573 88.8899 15.5469C89.5045 16.1615 89.9836 16.875 90.3274 17.6875C90.6711 18.5 90.843 19.3542 90.843 20.25C90.843 21.4896 90.5461 22.6198 89.9524 23.6406C89.3482 24.6615 88.5409 25.4792 87.5305 26.0938C86.5201 26.6979 85.3951 27 84.1555 27ZM84.6399 8.53125H82.2024V13.5625H84.6399C85.3795 13.5625 85.9784 13.3021 86.4368 12.7812C86.8951 12.25 87.1243 11.6771 87.1243 11.0625C87.1243 10.3854 86.8795 9.79688 86.3899 9.29688C85.9003 8.78646 85.317 8.53125 84.6399 8.53125ZM84.1555 17.4375H82.2024L82.1711 23.0938H84.1555C84.9264 23.0938 85.5878 22.8125 86.1399 22.25C86.692 21.6875 86.968 21.0208 86.968 20.25C86.968 19.4792 86.692 18.8177 86.1399 18.2656C85.5878 17.7135 84.9264 17.4375 84.1555 17.4375Z" fill="white"/>
<path d="M66.6086 27H62.9836C62.9003 27 62.8586 26.9479 62.8586 26.8438L62.9211 4.85938C62.9211 4.77604 62.9628 4.73438 63.0461 4.73438H69.5149C70.6711 4.73438 71.7336 5.01562 72.7024 5.57812C73.6711 6.14062 74.442 6.89583 75.0149 7.84375C75.5982 8.79167 75.8899 9.86458 75.8899 11.0625C75.8899 11.8438 75.7701 12.5521 75.5305 13.1875C75.2909 13.8229 75.0097 14.3594 74.6868 14.7969C74.3743 15.2344 74.0878 15.5573 73.8274 15.7656C74.9836 17.0469 75.5618 18.5521 75.5618 20.2812L75.593 26.8438C75.593 26.9479 75.5409 27 75.4368 27H71.8118C71.7284 27 71.6868 26.9688 71.6868 26.9062V20.2812C71.6868 19.5104 71.4159 18.8438 70.8743 18.2812C70.3326 17.7188 69.6659 17.4375 68.8743 17.4375H66.7649L66.7336 26.8438C66.7336 26.9479 66.692 27 66.6086 27ZM69.5149 8.5625H66.7649V13.5938H69.5149C70.1711 13.5938 70.7545 13.349 71.2649 12.8594C71.7857 12.3698 72.0461 11.7708 72.0461 11.0625C72.0461 10.3854 71.7961 9.80208 71.2961 9.3125C70.7961 8.8125 70.2024 8.5625 69.5149 8.5625Z" fill="white"/>
<path d="M59.8899 27H49.5461C49.4628 27 49.4211 26.9479 49.4211 26.8438L49.4524 4.85938C49.4524 4.77604 49.4941 4.73438 49.5774 4.73438H59.8586C59.942 4.73438 59.9836 4.78646 59.9836 4.89062V8.46875C59.9836 8.55208 59.942 8.59375 59.8586 8.59375H53.2961V13.5938H59.8586C59.942 13.5938 59.9836 13.6354 59.9836 13.7188L60.0149 17.3438C60.0149 17.4271 59.9732 17.4688 59.8899 17.4688H53.2961V23.0625H59.8899C59.9732 23.0625 60.0149 23.1146 60.0149 23.2188V26.875C60.0149 26.9583 59.9732 27 59.8899 27Z" fill="white"/>
<path d="M43.0462 27H39.1712C39.0775 27 39.0254 26.9479 39.015 26.8438L34.5931 4.85938C34.5723 4.77604 34.6139 4.73438 34.7181 4.73438H38.3431C38.4264 4.73438 38.4785 4.77604 38.4993 4.85938L41.1243 19.5156L43.6868 4.85938C43.7077 4.77604 43.7598 4.73438 43.8431 4.73438H47.4212C47.5358 4.73438 47.5775 4.77604 47.5462 4.85938L43.2025 26.8438C43.1921 26.9479 43.14 27 43.0462 27Z" fill="white"/>
<path fill-rule="evenodd" clip-rule="evenodd" d="M16.7309 2.31787L2.31786 15.9921L15.9921 30.4051L30.4051 16.7309L16.7309 2.31787ZM10.0806 18.411C11.3218 17.7373 11.7819 16.1849 11.1081 14.9436C10.4344 13.7024 8.88198 13.2423 7.64074 13.9161C6.3995 14.5898 5.93946 16.1422 6.61321 17.3835C7.28696 18.6247 8.83936 19.0848 10.0806 18.411Z" fill="#1E555C"/>
<circle cx="120.663" cy="6.79651" r="2.06213" fill="#1E555C"/>
</svg>
