<svg width="151" height="33" viewBox="0 0 151 33" fill="none" xmlns="http://www.w3.org/2000/svg">
<path d="M149.984 27H139.641C139.557 27 139.516 26.9479 139.516 26.8438L139.547 4.85938C139.547 4.77604 139.589 4.73438 139.672 4.73438H149.953C150.036 4.73438 150.078 4.78646 150.078 4.89062V8.46875C150.078 8.55208 150.036 8.59375 149.953 8.59375H143.391V13.5938H149.953C150.036 13.5938 150.078 13.6354 150.078 13.7188L150.109 17.3438C150.109 17.4271 150.068 17.4688 149.984 17.4688H143.391V23.0625H149.984C150.068 23.0625 150.109 23.1146 150.109 23.2188V26.875C150.109 26.9583 150.068 27 149.984 27Z" fill="black"/>
<path d="M137.344 27H125.406C125.302 27 125.25 26.9479 125.25 26.8438L125.281 23.3594L133.125 8.375H125.703C125.609 8.375 125.562 8.33333 125.562 8.25V4.89062C125.562 4.78646 125.609 4.73438 125.703 4.73438H137.281C137.385 4.73438 137.438 4.78646 137.438 4.89062V8.34375L129.641 23.25H137.344C137.427 23.25 137.469 23.3073 137.469 23.4219L137.5 26.8438C137.5 26.9479 137.448 27 137.344 27Z" fill="black"/>
<path d="M123.181 27H119.553C119.449 27 119.396 26.9623 119.396 26.8869L119.428 10.9788C119.428 10.9185 119.469 10.8883 119.553 10.8883H123.15C123.233 10.8883 123.275 10.9185 123.275 10.9788L123.306 26.8869C123.306 26.9623 123.265 27 123.181 27Z" fill="black"/>
<path d="M117.297 27H106.953C106.87 27 106.828 26.9479 106.828 26.8438L106.859 4.89062C106.859 4.78646 106.911 4.73438 107.016 4.73438H110.578C110.682 4.73438 110.734 4.78646 110.734 4.89062L110.703 23.0625H117.297C117.401 23.0625 117.453 23.1146 117.453 23.2188V26.8438C117.453 26.9479 117.401 27 117.297 27Z" fill="black"/>
<path d="M92.0938 26.8438L96.0625 4.85938C96.0833 4.77604 96.1354 4.73438 96.2188 4.73438H100.859C100.943 4.73438 100.995 4.77604 101.016 4.85938L104.828 26.8438C104.839 26.9479 104.797 27 104.703 27H101.156C101.052 27 100.995 26.9479 100.984 26.8438L100.641 24.5H96.2812L95.9375 26.8438C95.9271 26.9479 95.875 27 95.7812 27H92.2188C92.1354 27 92.0938 26.9479 92.0938 26.8438ZM98.3594 12.0938L96.9219 21.0781H100L98.6875 12.0938L98.5 10.9062L98.3594 12.0938Z" fill="black"/>
<path d="M84.8438 27H79.1094C79.026 27 78.9844 26.9479 78.9844 26.8438L79.0469 4.85938C79.0469 4.77604 79.0885 4.73438 79.1719 4.73438H85.3281C86.526 4.73438 87.6146 5.02604 88.5938 5.60938C89.5521 6.19271 90.3073 6.96875 90.8594 7.9375C91.4115 8.89583 91.6875 9.9375 91.6875 11.0625C91.6875 11.9792 91.4792 12.8333 91.0625 13.625C90.6458 14.4167 90.151 15.0573 89.5781 15.5469C90.1927 16.1615 90.6719 16.875 91.0156 17.6875C91.3594 18.5 91.5312 19.3542 91.5312 20.25C91.5312 21.4896 91.2344 22.6198 90.6406 23.6406C90.0365 24.6615 89.2292 25.4792 88.2188 26.0938C87.2083 26.6979 86.0833 27 84.8438 27ZM85.3281 8.53125H82.8906V13.5625H85.3281C86.0677 13.5625 86.6667 13.3021 87.125 12.7812C87.5833 12.25 87.8125 11.6771 87.8125 11.0625C87.8125 10.3854 87.5677 9.79688 87.0781 9.29688C86.5885 8.78646 86.0052 8.53125 85.3281 8.53125ZM84.8438 17.4375H82.8906L82.8594 23.0938H84.8438C85.6146 23.0938 86.276 22.8125 86.8281 22.25C87.3802 21.6875 87.6562 21.0208 87.6562 20.25C87.6562 19.4792 87.3802 18.8177 86.8281 18.2656C86.276 17.7135 85.6146 17.4375 84.8438 17.4375Z" fill="black"/>
<path d="M67.2969 27H63.6719C63.5885 27 63.5469 26.9479 63.5469 26.8438L63.6094 4.85938C63.6094 4.77604 63.651 4.73438 63.7344 4.73438H70.2031C71.3594 4.73438 72.4219 5.01562 73.3906 5.57812C74.3594 6.14062 75.1302 6.89583 75.7031 7.84375C76.2865 8.79167 76.5781 9.86458 76.5781 11.0625C76.5781 11.8438 76.4583 12.5521 76.2188 13.1875C75.9792 13.8229 75.6979 14.3594 75.375 14.7969C75.0625 15.2344 74.776 15.5573 74.5156 15.7656C75.6719 17.0469 76.25 18.5521 76.25 20.2812L76.2812 26.8438C76.2812 26.9479 76.2292 27 76.125 27H72.5C72.4167 27 72.375 26.9688 72.375 26.9062V20.2812C72.375 19.5104 72.1042 18.8438 71.5625 18.2812C71.0208 17.7188 70.3542 17.4375 69.5625 17.4375H67.4531L67.4219 26.8438C67.4219 26.9479 67.3802 27 67.2969 27ZM70.2031 8.5625H67.4531V13.5938H70.2031C70.8594 13.5938 71.4427 13.349 71.9531 12.8594C72.474 12.3698 72.7344 11.7708 72.7344 11.0625C72.7344 10.3854 72.4844 9.80208 71.9844 9.3125C71.4844 8.8125 70.8906 8.5625 70.2031 8.5625Z" fill="black"/>
<path d="M60.5781 27H50.2344C50.151 27 50.1094 26.9479 50.1094 26.8438L50.1406 4.85938C50.1406 4.77604 50.1823 4.73438 50.2656 4.73438H60.5469C60.6302 4.73438 60.6719 4.78646 60.6719 4.89062V8.46875C60.6719 8.55208 60.6302 8.59375 60.5469 8.59375H53.9844V13.5938H60.5469C60.6302 13.5938 60.6719 13.6354 60.6719 13.7188L60.7031 17.3438C60.7031 17.4271 60.6615 17.4688 60.5781 17.4688H53.9844V23.0625H60.5781C60.6615 23.0625 60.7031 23.1146 60.7031 23.2188V26.875C60.7031 26.9583 60.6615 27 60.5781 27Z" fill="black"/>
<path d="M43.7345 27H39.8595C39.7657 27 39.7136 26.9479 39.7032 26.8438L35.2813 4.85938C35.2605 4.77604 35.3022 4.73438 35.4063 4.73438H39.0313C39.1147 4.73438 39.1667 4.77604 39.1876 4.85938L41.8126 19.5156L44.3751 4.85938C44.3959 4.77604 44.448 4.73438 44.5313 4.73438H48.1095C48.224 4.73438 48.2657 4.77604 48.2345 4.85938L43.8907 26.8438C43.8803 26.9479 43.8282 27 43.7345 27Z" fill="black"/>
<path fill-rule="evenodd" clip-rule="evenodd" d="M17.4191 2.31787L3.00609 15.9921L16.6803 30.4051L31.0933 16.7309L17.4191 2.31787ZM10.7688 18.411C12.0101 17.7373 12.4701 16.1849 11.7964 14.9436C11.1226 13.7024 9.57021 13.2423 8.32897 13.9161C7.08774 14.5898 6.62769 16.1422 7.30144 17.3835C7.97519 18.6247 9.5276 19.0848 10.7688 18.411Z" fill="#1E555C"/>
<circle cx="121.352" cy="6.79651" r="2.06213" fill="#1E555C"/>
</svg>
