<svg width="16" height="10" viewBox="0 0 16 10" fill="none" xmlns="http://www.w3.org/2000/svg">
<path d="M1 0.749898L15 0.749899C15.1478 0.748898 15.2925 0.792179 15.4155 0.874165C15.5385 0.95615 15.6341 1.07308 15.69 1.2099C15.7413 1.34315 15.7535 1.48828 15.7252 1.62822C15.6968 1.76816 15.6291 1.89711 15.53 1.9999L8.53 8.9999C8.38938 9.14035 8.19875 9.21924 8 9.21924C7.80125 9.21924 7.61063 9.14035 7.47 8.9999L0.470002 1.9999C0.365013 1.8945 0.293743 1.76025 0.265252 1.61424C0.236761 1.46822 0.252338 1.31704 0.310002 1.1799C0.370482 1.04869 0.468048 0.93806 0.590661 0.861649C0.713274 0.785238 0.855572 0.746391 1 0.749898ZM13.19 2.2499L2.81 2.2499L8 7.4399L13.19 2.2499Z" fill="black"/>
</svg>
